<?xml version="1.0" encoding="utf-8" standalone="no"?>
<!DOCTYPE svg PUBLIC "-//W3C//DTD SVG 1.1//EN"
  "http://www.w3.org/Graphics/SVG/1.1/DTD/svg11.dtd">
<!-- Created with matplotlib (https://matplotlib.org/) -->
<svg height="1440pt" version="1.1" viewBox="0 0 1440 1440" width="1440pt" xmlns="http://www.w3.org/2000/svg" xmlns:xlink="http://www.w3.org/1999/xlink">
 <defs>
  <style type="text/css">
*{stroke-linecap:butt;stroke-linejoin:round;}
  </style>
 </defs>
 <g id="figure_1">
  <g id="patch_1">
   <path d="M 0 1440 
L 1440 1440 
L 1440 0 
L 0 0 
z
" style="fill:#ffffff;"/>
  </g>
  <g id="axes_1">
   <g id="patch_2">
    <path d="M 180 1281.6 
L 1296 1281.6 
L 1296 172.8 
L 180 172.8 
z
" style="fill:#ffffff;"/>
   </g>
   <g id="matplotlib.axis_1">
    <g id="xtick_1"/>
    <g id="xtick_2"/>
    <g id="xtick_3"/>
    <g id="xtick_4"/>
    <g id="xtick_5"/>
    <g id="xtick_6"/>
   </g>
   <g id="matplotlib.axis_2">
    <g id="ytick_1">
     <g id="line2d_1">
      <defs>
       <path d="M 0 0 
L -3.5 0 
" id="mca817a728f" style="stroke:#000000;stroke-width:0.8;"/>
      </defs>
      <g>
       <use style="stroke:#000000;stroke-width:0.8;" x="180" xlink:href="#mca817a728f" y="1231.2"/>
      </g>
     </g>
     <g id="text_1">
      <!-- $\mathdefault{10^{0}}$ -->
      <defs>
       <path d="M 12.40625 8.296875 
L 28.515625 8.296875 
L 28.515625 63.921875 
L 10.984375 60.40625 
L 10.984375 69.390625 
L 28.421875 72.90625 
L 38.28125 72.90625 
L 38.28125 8.296875 
L 54.390625 8.296875 
L 54.390625 0 
L 12.40625 0 
z
" id="DejaVuSans-49"/>
       <path d="M 31.78125 66.40625 
Q 24.171875 66.40625 20.328125 58.90625 
Q 16.5 51.421875 16.5 36.375 
Q 16.5 21.390625 20.328125 13.890625 
Q 24.171875 6.390625 31.78125 6.390625 
Q 39.453125 6.390625 43.28125 13.890625 
Q 47.125 21.390625 47.125 36.375 
Q 47.125 51.421875 43.28125 58.90625 
Q 39.453125 66.40625 31.78125 66.40625 
z
M 31.78125 74.21875 
Q 44.046875 74.21875 50.515625 64.515625 
Q 56.984375 54.828125 56.984375 36.375 
Q 56.984375 17.96875 50.515625 8.265625 
Q 44.046875 -1.421875 31.78125 -1.421875 
Q 19.53125 -1.421875 13.0625 8.265625 
Q 6.59375 17.96875 6.59375 36.375 
Q 6.59375 54.828125 13.0625 64.515625 
Q 19.53125 74.21875 31.78125 74.21875 
z
" id="DejaVuSans-48"/>
      </defs>
      <g transform="translate(155.4 1234.999219)scale(0.1 -0.1)">
       <use transform="translate(0 0.765625)" xlink:href="#DejaVuSans-49"/>
       <use transform="translate(63.623047 0.765625)" xlink:href="#DejaVuSans-48"/>
       <use transform="translate(128.203125 39.046875)scale(0.7)" xlink:href="#DejaVuSans-48"/>
      </g>
     </g>
    </g>
    <g id="ytick_2">
     <g id="line2d_2">
      <g>
       <use style="stroke:#000000;stroke-width:0.8;" x="180" xlink:href="#mca817a728f" y="976.9945"/>
      </g>
     </g>
     <g id="text_2">
      <!-- $\mathdefault{10^{1}}$ -->
      <g transform="translate(155.4 980.793719)scale(0.1 -0.1)">
       <use transform="translate(0 0.684375)" xlink:href="#DejaVuSans-49"/>
       <use transform="translate(63.623047 0.684375)" xlink:href="#DejaVuSans-48"/>
       <use transform="translate(128.203125 38.965625)scale(0.7)" xlink:href="#DejaVuSans-49"/>
      </g>
     </g>
    </g>
    <g id="ytick_3">
     <g id="line2d_3">
      <g>
       <use style="stroke:#000000;stroke-width:0.8;" x="180" xlink:href="#mca817a728f" y="722.789"/>
      </g>
     </g>
     <g id="text_3">
      <!-- $\mathdefault{10^{2}}$ -->
      <defs>
       <path d="M 19.1875 8.296875 
L 53.609375 8.296875 
L 53.609375 0 
L 7.328125 0 
L 7.328125 8.296875 
Q 12.9375 14.109375 22.625 23.890625 
Q 32.328125 33.6875 34.8125 36.53125 
Q 39.546875 41.84375 41.421875 45.53125 
Q 43.3125 49.21875 43.3125 52.78125 
Q 43.3125 58.59375 39.234375 62.25 
Q 35.15625 65.921875 28.609375 65.921875 
Q 23.96875 65.921875 18.8125 64.3125 
Q 13.671875 62.703125 7.8125 59.421875 
L 7.8125 69.390625 
Q 13.765625 71.78125 18.9375 73 
Q 24.125 74.21875 28.421875 74.21875 
Q 39.75 74.21875 46.484375 68.546875 
Q 53.21875 62.890625 53.21875 53.421875 
Q 53.21875 48.921875 51.53125 44.890625 
Q 49.859375 40.875 45.40625 35.40625 
Q 44.1875 33.984375 37.640625 27.21875 
Q 31.109375 20.453125 19.1875 8.296875 
z
" id="DejaVuSans-50"/>
      </defs>
      <g transform="translate(155.4 726.588219)scale(0.1 -0.1)">
       <use transform="translate(0 0.765625)" xlink:href="#DejaVuSans-49"/>
       <use transform="translate(63.623047 0.765625)" xlink:href="#DejaVuSans-48"/>
       <use transform="translate(128.203125 39.046875)scale(0.7)" xlink:href="#DejaVuSans-50"/>
      </g>
     </g>
    </g>
    <g id="ytick_4">
     <g id="line2d_4">
      <g>
       <use style="stroke:#000000;stroke-width:0.8;" x="180" xlink:href="#mca817a728f" y="468.5835"/>
      </g>
     </g>
     <g id="text_4">
      <!-- $\mathdefault{10^{3}}$ -->
      <defs>
       <path d="M 40.578125 39.3125 
Q 47.65625 37.796875 51.625 33 
Q 55.609375 28.21875 55.609375 21.1875 
Q 55.609375 10.40625 48.1875 4.484375 
Q 40.765625 -1.421875 27.09375 -1.421875 
Q 22.515625 -1.421875 17.65625 -0.515625 
Q 12.796875 0.390625 7.625 2.203125 
L 7.625 11.71875 
Q 11.71875 9.328125 16.59375 8.109375 
Q 21.484375 6.890625 26.8125 6.890625 
Q 36.078125 6.890625 40.9375 10.546875 
Q 45.796875 14.203125 45.796875 21.1875 
Q 45.796875 27.640625 41.28125 31.265625 
Q 36.765625 34.90625 28.71875 34.90625 
L 20.21875 34.90625 
L 20.21875 43.015625 
L 29.109375 43.015625 
Q 36.375 43.015625 40.234375 45.921875 
Q 44.09375 48.828125 44.09375 54.296875 
Q 44.09375 59.90625 40.109375 62.90625 
Q 36.140625 65.921875 28.71875 65.921875 
Q 24.65625 65.921875 20.015625 65.03125 
Q 15.375 64.15625 9.8125 62.3125 
L 9.8125 71.09375 
Q 15.4375 72.65625 20.34375 73.4375 
Q 25.25 74.21875 29.59375 74.21875 
Q 40.828125 74.21875 47.359375 69.109375 
Q 53.90625 64.015625 53.90625 55.328125 
Q 53.90625 49.265625 50.4375 45.09375 
Q 46.96875 40.921875 40.578125 39.3125 
z
" id="DejaVuSans-51"/>
      </defs>
      <g transform="translate(155.4 472.382719)scale(0.1 -0.1)">
       <use transform="translate(0 0.765625)" xlink:href="#DejaVuSans-49"/>
       <use transform="translate(63.623047 0.765625)" xlink:href="#DejaVuSans-48"/>
       <use transform="translate(128.203125 39.046875)scale(0.7)" xlink:href="#DejaVuSans-51"/>
      </g>
     </g>
    </g>
    <g id="ytick_5">
     <g id="line2d_5">
      <g>
       <use style="stroke:#000000;stroke-width:0.8;" x="180" xlink:href="#mca817a728f" y="214.378"/>
      </g>
     </g>
     <g id="text_5">
      <!-- $\mathdefault{10^{4}}$ -->
      <defs>
       <path d="M 37.796875 64.3125 
L 12.890625 25.390625 
L 37.796875 25.390625 
z
M 35.203125 72.90625 
L 47.609375 72.90625 
L 47.609375 25.390625 
L 58.015625 25.390625 
L 58.015625 17.1875 
L 47.609375 17.1875 
L 47.609375 0 
L 37.796875 0 
L 37.796875 17.1875 
L 4.890625 17.1875 
L 4.890625 26.703125 
z
" id="DejaVuSans-52"/>
      </defs>
      <g transform="translate(155.4 218.177219)scale(0.1 -0.1)">
       <use transform="translate(0 0.684375)" xlink:href="#DejaVuSans-49"/>
       <use transform="translate(63.623047 0.684375)" xlink:href="#DejaVuSans-48"/>
       <use transform="translate(128.203125 38.965625)scale(0.7)" xlink:href="#DejaVuSans-52"/>
      </g>
     </g>
    </g>
    <g id="ytick_6">
     <g id="line2d_6">
      <defs>
       <path d="M 0 0 
L -2 0 
" id="mb73e07ff83" style="stroke:#000000;stroke-width:0.6;"/>
      </defs>
      <g>
       <use style="stroke:#000000;stroke-width:0.6;" x="180" xlink:href="#mb73e07ff83" y="1270.57693"/>
      </g>
     </g>
    </g>
    <g id="ytick_7">
     <g id="line2d_7">
      <g>
       <use style="stroke:#000000;stroke-width:0.6;" x="180" xlink:href="#mb73e07ff83" y="1255.835058"/>
      </g>
     </g>
    </g>
    <g id="ytick_8">
     <g id="line2d_8">
      <g>
       <use style="stroke:#000000;stroke-width:0.6;" x="180" xlink:href="#mb73e07ff83" y="1242.831806"/>
      </g>
     </g>
    </g>
    <g id="ytick_9">
     <g id="line2d_9">
      <g>
       <use style="stroke:#000000;stroke-width:0.6;" x="180" xlink:href="#mb73e07ff83" y="1154.676519"/>
      </g>
     </g>
    </g>
    <g id="ytick_10">
     <g id="line2d_10">
      <g>
       <use style="stroke:#000000;stroke-width:0.6;" x="180" xlink:href="#mb73e07ff83" y="1109.913153"/>
      </g>
     </g>
    </g>
    <g id="ytick_11">
     <g id="line2d_11">
      <g>
       <use style="stroke:#000000;stroke-width:0.6;" x="180" xlink:href="#mb73e07ff83" y="1078.153039"/>
      </g>
     </g>
    </g>
    <g id="ytick_12">
     <g id="line2d_12">
      <g>
       <use style="stroke:#000000;stroke-width:0.6;" x="180" xlink:href="#mb73e07ff83" y="1053.517981"/>
      </g>
     </g>
    </g>
    <g id="ytick_13">
     <g id="line2d_13">
      <g>
       <use style="stroke:#000000;stroke-width:0.6;" x="180" xlink:href="#mb73e07ff83" y="1033.389672"/>
      </g>
     </g>
    </g>
    <g id="ytick_14">
     <g id="line2d_14">
      <g>
       <use style="stroke:#000000;stroke-width:0.6;" x="180" xlink:href="#mb73e07ff83" y="1016.37143"/>
      </g>
     </g>
    </g>
    <g id="ytick_15">
     <g id="line2d_15">
      <g>
       <use style="stroke:#000000;stroke-width:0.6;" x="180" xlink:href="#mb73e07ff83" y="1001.629558"/>
      </g>
     </g>
    </g>
    <g id="ytick_16">
     <g id="line2d_16">
      <g>
       <use style="stroke:#000000;stroke-width:0.6;" x="180" xlink:href="#mb73e07ff83" y="988.626306"/>
      </g>
     </g>
    </g>
    <g id="ytick_17">
     <g id="line2d_17">
      <g>
       <use style="stroke:#000000;stroke-width:0.6;" x="180" xlink:href="#mb73e07ff83" y="900.47102"/>
      </g>
     </g>
    </g>
    <g id="ytick_18">
     <g id="line2d_18">
      <g>
       <use style="stroke:#000000;stroke-width:0.6;" x="180" xlink:href="#mb73e07ff83" y="855.707653"/>
      </g>
     </g>
    </g>
    <g id="ytick_19">
     <g id="line2d_19">
      <g>
       <use style="stroke:#000000;stroke-width:0.6;" x="180" xlink:href="#mb73e07ff83" y="823.947539"/>
      </g>
     </g>
    </g>
    <g id="ytick_20">
     <g id="line2d_20">
      <g>
       <use style="stroke:#000000;stroke-width:0.6;" x="180" xlink:href="#mb73e07ff83" y="799.312481"/>
      </g>
     </g>
    </g>
    <g id="ytick_21">
     <g id="line2d_21">
      <g>
       <use style="stroke:#000000;stroke-width:0.6;" x="180" xlink:href="#mb73e07ff83" y="779.184173"/>
      </g>
     </g>
    </g>
    <g id="ytick_22">
     <g id="line2d_22">
      <g>
       <use style="stroke:#000000;stroke-width:0.6;" x="180" xlink:href="#mb73e07ff83" y="762.16593"/>
      </g>
     </g>
    </g>
    <g id="ytick_23">
     <g id="line2d_23">
      <g>
       <use style="stroke:#000000;stroke-width:0.6;" x="180" xlink:href="#mb73e07ff83" y="747.424059"/>
      </g>
     </g>
    </g>
    <g id="ytick_24">
     <g id="line2d_24">
      <g>
       <use style="stroke:#000000;stroke-width:0.6;" x="180" xlink:href="#mb73e07ff83" y="734.420806"/>
      </g>
     </g>
    </g>
    <g id="ytick_25">
     <g id="line2d_25">
      <g>
       <use style="stroke:#000000;stroke-width:0.6;" x="180" xlink:href="#mb73e07ff83" y="646.26552"/>
      </g>
     </g>
    </g>
    <g id="ytick_26">
     <g id="line2d_26">
      <g>
       <use style="stroke:#000000;stroke-width:0.6;" x="180" xlink:href="#mb73e07ff83" y="601.502153"/>
      </g>
     </g>
    </g>
    <g id="ytick_27">
     <g id="line2d_27">
      <g>
       <use style="stroke:#000000;stroke-width:0.6;" x="180" xlink:href="#mb73e07ff83" y="569.742039"/>
      </g>
     </g>
    </g>
    <g id="ytick_28">
     <g id="line2d_28">
      <g>
       <use style="stroke:#000000;stroke-width:0.6;" x="180" xlink:href="#mb73e07ff83" y="545.106981"/>
      </g>
     </g>
    </g>
    <g id="ytick_29">
     <g id="line2d_29">
      <g>
       <use style="stroke:#000000;stroke-width:0.6;" x="180" xlink:href="#mb73e07ff83" y="524.978673"/>
      </g>
     </g>
    </g>
    <g id="ytick_30">
     <g id="line2d_30">
      <g>
       <use style="stroke:#000000;stroke-width:0.6;" x="180" xlink:href="#mb73e07ff83" y="507.96043"/>
      </g>
     </g>
    </g>
    <g id="ytick_31">
     <g id="line2d_31">
      <g>
       <use style="stroke:#000000;stroke-width:0.6;" x="180" xlink:href="#mb73e07ff83" y="493.218559"/>
      </g>
     </g>
    </g>
    <g id="ytick_32">
     <g id="line2d_32">
      <g>
       <use style="stroke:#000000;stroke-width:0.6;" x="180" xlink:href="#mb73e07ff83" y="480.215306"/>
      </g>
     </g>
    </g>
    <g id="ytick_33">
     <g id="line2d_33">
      <g>
       <use style="stroke:#000000;stroke-width:0.6;" x="180" xlink:href="#mb73e07ff83" y="392.06002"/>
      </g>
     </g>
    </g>
    <g id="ytick_34">
     <g id="line2d_34">
      <g>
       <use style="stroke:#000000;stroke-width:0.6;" x="180" xlink:href="#mb73e07ff83" y="347.296653"/>
      </g>
     </g>
    </g>
    <g id="ytick_35">
     <g id="line2d_35">
      <g>
       <use style="stroke:#000000;stroke-width:0.6;" x="180" xlink:href="#mb73e07ff83" y="315.536539"/>
      </g>
     </g>
    </g>
    <g id="ytick_36">
     <g id="line2d_36">
      <g>
       <use style="stroke:#000000;stroke-width:0.6;" x="180" xlink:href="#mb73e07ff83" y="290.901481"/>
      </g>
     </g>
    </g>
    <g id="ytick_37">
     <g id="line2d_37">
      <g>
       <use style="stroke:#000000;stroke-width:0.6;" x="180" xlink:href="#mb73e07ff83" y="270.773173"/>
      </g>
     </g>
    </g>
    <g id="ytick_38">
     <g id="line2d_38">
      <g>
       <use style="stroke:#000000;stroke-width:0.6;" x="180" xlink:href="#mb73e07ff83" y="253.754931"/>
      </g>
     </g>
    </g>
    <g id="ytick_39">
     <g id="line2d_39">
      <g>
       <use style="stroke:#000000;stroke-width:0.6;" x="180" xlink:href="#mb73e07ff83" y="239.013059"/>
      </g>
     </g>
    </g>
    <g id="ytick_40">
     <g id="line2d_40">
      <g>
       <use style="stroke:#000000;stroke-width:0.6;" x="180" xlink:href="#mb73e07ff83" y="226.009806"/>
      </g>
     </g>
    </g>
   </g>
   <g id="line2d_41">
    <path clip-path="url(#p8872349bef)" d="M 230.727273 1231.2 
" style="fill:none;stroke:#440154;stroke-linecap:square;stroke-width:1.5;"/>
   </g>
   <g id="line2d_42">
    <path clip-path="url(#p8872349bef)" d="M 230.727273 1154.676519 
L 239.867322 1231.2 
" style="fill:none;stroke:#470d60;stroke-linecap:square;stroke-width:1.5;"/>
   </g>
   <g id="line2d_43">
    <path clip-path="url(#p8872349bef)" d="M 230.727273 1109.913153 
L 239.867322 976.9945 
L 249.007371 1053.517981 
L 258.14742 925.106078 
L 267.287469 1001.629558 
L 276.427518 1078.153039 
L 285.567568 1154.676519 
L 294.707617 1231.2 
" style="fill:none;stroke:#481a6c;stroke-linecap:square;stroke-width:1.5;"/>
   </g>
   <g id="line2d_44">
    <path clip-path="url(#p8872349bef)" d="M 230.727273 1078.153039 
L 239.867322 1154.676519 
L 249.007371 1231.2 
" style="fill:none;stroke:#482475;stroke-linecap:square;stroke-width:1.5;"/>
   </g>
   <g id="line2d_45">
    <path clip-path="url(#p8872349bef)" d="M 230.727273 1053.517981 
L 239.867322 925.106078 
L 249.007371 1001.629558 
L 258.14742 1078.153039 
L 267.287469 1154.676519 
L 276.427518 1231.2 
" style="fill:none;stroke:#472f7d;stroke-linecap:square;stroke-width:1.5;"/>
   </g>
   <g id="line2d_46">
    <path clip-path="url(#p8872349bef)" d="M 230.727273 1033.389672 
L 239.867322 1109.913153 
L 249.007371 976.9945 
L 258.14742 1053.517981 
L 267.287469 925.106078 
L 276.427518 1001.629558 
L 285.567568 1078.153039 
L 294.707617 1154.676519 
L 303.847666 1231.2 
" style="fill:none;stroke:#443983;stroke-linecap:square;stroke-width:1.5;"/>
   </g>
   <g id="line2d_47">
    <path clip-path="url(#p8872349bef)" d="M 230.727273 1016.37143 
L 239.867322 889.948771 
L 249.007371 966.472252 
L 258.14742 841.889636 
L 267.287469 918.413117 
L 276.427518 794.982512 
L 285.567568 871.505993 
L 294.707617 948.029473 
L 303.847666 823.947539 
L 312.987715 900.47102 
L 322.127764 976.9945 
L 331.267813 1053.517981 
L 340.407862 925.106078 
L 349.547912 1001.629558 
L 358.687961 1078.153039 
L 367.82801 1154.676519 
L 376.968059 1231.2 
" style="fill:none;stroke:#414487;stroke-linecap:square;stroke-width:1.5;"/>
   </g>
   <g id="line2d_48">
    <path clip-path="url(#p8872349bef)" d="M 230.727273 1001.629558 
L 239.867322 1078.153039 
L 249.007371 1154.676519 
L 258.14742 1231.2 
" style="fill:none;stroke:#3d4d8a;stroke-linecap:square;stroke-width:1.5;"/>
   </g>
   <g id="line2d_49">
    <path clip-path="url(#p8872349bef)" d="M 230.727273 988.626306 
L 239.867322 863.324469 
L 249.007371 939.84795 
L 258.14742 1016.37143 
L 267.287469 889.948771 
L 276.427518 966.472252 
L 285.567568 841.889636 
L 294.707617 918.413117 
L 303.847666 794.982512 
L 312.987715 871.505993 
L 322.127764 948.029473 
L 331.267813 823.947539 
L 340.407862 900.47102 
L 349.547912 976.9945 
L 358.687961 1053.517981 
L 367.82801 925.106078 
L 376.968059 1001.629558 
L 386.108108 1078.153039 
L 395.248157 1154.676519 
L 404.388206 1231.2 
" style="fill:none;stroke:#39568c;stroke-linecap:square;stroke-width:1.5;"/>
   </g>
   <g id="line2d_50">
    <path clip-path="url(#p8872349bef)" d="M 230.727273 976.9945 
L 239.867322 1053.517981 
L 249.007371 925.106078 
L 258.14742 1001.629558 
L 267.287469 1078.153039 
L 276.427518 1154.676519 
L 285.567568 1231.2 
" style="fill:none;stroke:#355f8d;stroke-linecap:square;stroke-width:1.5;"/>
   </g>
   <g id="line2d_51">
    <path clip-path="url(#p8872349bef)" d="M 230.727273 966.472252 
L 239.867322 841.889636 
L 249.007371 918.413117 
L 258.14742 794.982512 
L 267.287469 871.505993 
L 276.427518 948.029473 
L 285.567568 823.947539 
L 294.707617 900.47102 
L 303.847666 976.9945 
L 312.987715 1053.517981 
L 322.127764 925.106078 
L 331.267813 1001.629558 
L 340.407862 1078.153039 
L 349.547912 1154.676519 
L 358.687961 1231.2 
" style="fill:none;stroke:#31688e;stroke-linecap:square;stroke-width:1.5;"/>
   </g>
   <g id="line2d_52">
    <path clip-path="url(#p8872349bef)" d="M 230.727273 956.866192 
L 239.867322 1033.389672 
L 249.007371 1109.913153 
L 258.14742 976.9945 
L 267.287469 1053.517981 
L 276.427518 925.106078 
L 285.567568 1001.629558 
L 294.707617 1078.153039 
L 303.847666 1154.676519 
L 312.987715 1231.2 
" style="fill:none;stroke:#2d708e;stroke-linecap:square;stroke-width:1.5;"/>
   </g>
   <g id="line2d_53">
    <path clip-path="url(#p8872349bef)" d="M 230.727273 948.029473 
L 239.867322 823.947539 
L 249.007371 900.47102 
L 258.14742 976.9945 
L 267.287469 1053.517981 
L 276.427518 925.106078 
L 285.567568 1001.629558 
L 294.707617 1078.153039 
L 303.847666 1154.676519 
L 312.987715 1231.2 
" style="fill:none;stroke:#2a788e;stroke-linecap:square;stroke-width:1.5;"/>
   </g>
   <g id="line2d_54">
    <path clip-path="url(#p8872349bef)" d="M 230.727273 939.84795 
L 239.867322 1016.37143 
L 249.007371 889.948771 
L 258.14742 966.472252 
L 267.287469 841.889636 
L 276.427518 918.413117 
L 285.567568 794.982512 
L 294.707617 871.505993 
L 303.847666 948.029473 
L 312.987715 823.947539 
L 322.127764 900.47102 
L 331.267813 976.9945 
L 340.407862 1053.517981 
L 349.547912 925.106078 
L 358.687961 1001.629558 
L 367.82801 1078.153039 
L 376.968059 1154.676519 
L 386.108108 1231.2 
" style="fill:none;stroke:#27808e;stroke-linecap:square;stroke-width:1.5;"/>
   </g>
   <g id="line2d_55">
    <path clip-path="url(#p8872349bef)" d="M 230.727273 932.231134 
L 239.867322 808.517814 
L 249.007371 885.041295 
L 258.14742 762.16593 
L 267.287469 838.689411 
L 276.427518 716.35611 
L 285.567568 792.879591 
L 294.707617 670.900578 
L 303.847666 747.424059 
L 312.987715 823.947539 
L 322.127764 900.47102 
L 331.267813 976.9945 
L 340.407862 1053.517981 
L 349.547912 925.106078 
L 358.687961 1001.629558 
L 367.82801 1078.153039 
L 376.968059 1154.676519 
L 386.108108 1231.2 
" style="fill:none;stroke:#23888e;stroke-linecap:square;stroke-width:1.5;"/>
   </g>
   <g id="line2d_56">
    <path clip-path="url(#p8872349bef)" d="M 230.727273 925.106078 
L 239.867322 1001.629558 
L 249.007371 1078.153039 
L 258.14742 1154.676519 
L 267.287469 1231.2 
" style="fill:none;stroke:#21918c;stroke-linecap:square;stroke-width:1.5;"/>
   </g>
   <g id="line2d_57">
    <path clip-path="url(#p8872349bef)" d="M 230.727273 918.413117 
L 239.867322 794.982512 
L 249.007371 871.505993 
L 258.14742 948.029473 
L 267.287469 823.947539 
L 276.427518 900.47102 
L 285.567568 976.9945 
L 294.707617 1053.517981 
L 303.847666 925.106078 
L 312.987715 1001.629558 
L 322.127764 1078.153039 
L 331.267813 1154.676519 
L 340.407862 1231.2 
" style="fill:none;stroke:#1f988b;stroke-linecap:square;stroke-width:1.5;"/>
   </g>
   <g id="line2d_58">
    <path clip-path="url(#p8872349bef)" d="M 230.727273 912.102825 
L 239.867322 988.626306 
L 249.007371 863.324469 
L 258.14742 939.84795 
L 267.287469 1016.37143 
L 276.427518 889.948771 
L 285.567568 966.472252 
L 294.707617 841.889636 
L 303.847666 918.413117 
L 312.987715 794.982512 
L 322.127764 871.505993 
L 331.267813 948.029473 
L 340.407862 823.947539 
L 349.547912 900.47102 
L 358.687961 976.9945 
L 367.82801 1053.517981 
L 376.968059 925.106078 
L 386.108108 1001.629558 
L 395.248157 1078.153039 
L 404.388206 1154.676519 
L 413.528256 1231.2 
" style="fill:none;stroke:#1fa188;stroke-linecap:square;stroke-width:1.5;"/>
   </g>
   <g id="line2d_59">
    <path clip-path="url(#p8872349bef)" d="M 230.727273 906.133802 
L 239.867322 782.926905 
L 249.007371 859.450386 
L 258.14742 736.90181 
L 267.287469 813.425291 
L 276.427518 889.948771 
L 285.567568 966.472252 
L 294.707617 841.889636 
L 303.847666 918.413117 
L 312.987715 794.982512 
L 322.127764 871.505993 
L 331.267813 948.029473 
L 340.407862 823.947539 
L 349.547912 900.47102 
L 358.687961 976.9945 
L 367.82801 1053.517981 
L 376.968059 925.106078 
L 386.108108 1001.629558 
L 395.248157 1078.153039 
L 404.388206 1154.676519 
L 413.528256 1231.2 
" style="fill:none;stroke:#22a884;stroke-linecap:square;stroke-width:1.5;"/>
   </g>
   <g id="line2d_60">
    <path clip-path="url(#p8872349bef)" d="M 230.727273 900.47102 
L 239.867322 976.9945 
L 249.007371 1053.517981 
L 258.14742 925.106078 
L 267.287469 1001.629558 
L 276.427518 1078.153039 
L 285.567568 1154.676519 
L 294.707617 1231.2 
" style="fill:none;stroke:#2ab07f;stroke-linecap:square;stroke-width:1.5;"/>
   </g>
   <g id="line2d_61">
    <path clip-path="url(#p8872349bef)" d="M 230.727273 895.084583 
L 239.867322 772.059117 
L 249.007371 848.582597 
L 258.14742 925.106078 
L 267.287469 1001.629558 
L 276.427518 1078.153039 
L 285.567568 1154.676519 
L 294.707617 1231.2 
" style="fill:none;stroke:#35b779;stroke-linecap:square;stroke-width:1.5;"/>
   </g>
   <g id="line2d_62">
    <path clip-path="url(#p8872349bef)" d="M 230.727273 889.948771 
L 239.867322 966.472252 
L 249.007371 841.889636 
L 258.14742 918.413117 
L 267.287469 794.982512 
L 276.427518 871.505993 
L 285.567568 948.029473 
L 294.707617 823.947539 
L 303.847666 900.47102 
L 312.987715 976.9945 
L 322.127764 1053.517981 
L 331.267813 925.106078 
L 340.407862 1001.629558 
L 349.547912 1078.153039 
L 358.687961 1154.676519 
L 367.82801 1231.2 
" style="fill:none;stroke:#44bf70;stroke-linecap:square;stroke-width:1.5;"/>
   </g>
   <g id="line2d_63">
    <path clip-path="url(#p8872349bef)" d="M 230.727273 885.041295 
L 239.867322 762.16593 
L 249.007371 838.689411 
L 258.14742 716.35611 
L 267.287469 792.879591 
L 276.427518 670.900578 
L 285.567568 747.424059 
L 294.707617 823.947539 
L 303.847666 900.47102 
L 312.987715 976.9945 
L 322.127764 1053.517981 
L 331.267813 925.106078 
L 340.407862 1001.629558 
L 349.547912 1078.153039 
L 358.687961 1154.676519 
L 367.82801 1231.2 
" style="fill:none;stroke:#54c568;stroke-linecap:square;stroke-width:1.5;"/>
   </g>
   <g id="line2d_64">
    <path clip-path="url(#p8872349bef)" d="M 230.727273 880.342711 
L 239.867322 956.866192 
L 249.007371 1033.389672 
L 258.14742 1109.913153 
L 267.287469 976.9945 
L 276.427518 1053.517981 
L 285.567568 925.106078 
L 294.707617 1001.629558 
L 303.847666 1078.153039 
L 312.987715 1154.676519 
L 322.127764 1231.2 
" style="fill:none;stroke:#67cc5c;stroke-linecap:square;stroke-width:1.5;"/>
   </g>
   <g id="line2d_65">
    <path clip-path="url(#p8872349bef)" d="M 230.727273 875.835961 
L 239.867322 753.086841 
L 249.007371 829.610321 
L 258.14742 906.133802 
L 267.287469 782.926905 
L 276.427518 859.450386 
L 285.567568 736.90181 
L 294.707617 813.425291 
L 303.847666 889.948771 
L 312.987715 966.472252 
L 322.127764 841.889636 
L 331.267813 918.413117 
L 340.407862 794.982512 
L 349.547912 871.505993 
L 358.687961 948.029473 
L 367.82801 823.947539 
L 376.968059 900.47102 
L 386.108108 976.9945 
L 395.248157 1053.517981 
L 404.388206 925.106078 
L 413.528256 1001.629558 
L 422.668305 1078.153039 
L 431.808354 1154.676519 
L 440.948403 1231.2 
" style="fill:none;stroke:#7ad151;stroke-linecap:square;stroke-width:1.5;"/>
   </g>
   <g id="line2d_66">
    <path clip-path="url(#p8872349bef)" d="M 230.727273 871.505993 
L 239.867322 948.029473 
L 249.007371 823.947539 
L 258.14742 900.47102 
L 267.287469 976.9945 
L 276.427518 1053.517981 
L 285.567568 925.106078 
L 294.707617 1001.629558 
L 303.847666 1078.153039 
L 312.987715 1154.676519 
L 322.127764 1231.2 
" style="fill:none;stroke:#90d743;stroke-linecap:square;stroke-width:1.5;"/>
   </g>
   <g id="line2d_67">
    <path clip-path="url(#p8872349bef)" d="M 230.727273 867.339459 
L 239.867322 744.697993 
L 249.007371 821.221473 
L 258.14742 699.040694 
L 267.287469 775.564175 
L 276.427518 852.087655 
L 285.567568 729.620048 
L 294.707617 806.143528 
L 303.847666 684.076466 
L 312.987715 760.599946 
L 322.127764 638.796002 
L 331.267813 715.319482 
L 340.407862 593.689244 
L 349.547912 670.212725 
L 358.687961 548.697543 
L 367.82801 625.221023 
L 376.968059 701.744504 
L 386.108108 580.153942 
L 395.248157 656.677423 
L 404.388206 733.200904 
L 413.528256 611.5104 
L 422.668305 688.03388 
L 431.808354 566.478746 
L 440.948403 643.002227 
L 450.088452 719.525707 
L 459.228501 597.882155 
L 468.36855 674.405636 
L 477.5086 552.881624 
L 486.648649 629.405105 
L 495.788698 507.96043 
L 504.928747 584.483911 
L 514.068796 661.007392 
L 523.208845 539.510459 
L 532.348894 616.033939 
L 541.488943 494.607257 
L 550.628993 571.130737 
L 559.769042 449.750765 
L 568.909091 526.274245 
L 578.04914 404.925358 
L 587.189189 481.448839 
L 596.329238 557.97232 
L 605.469287 436.602807 
L 614.609337 513.126287 
L 623.749386 589.649768 
L 632.889435 666.173248 
L 642.029484 544.666262 
L 651.169533 621.189742 
L 660.309582 499.756379 
L 669.449631 576.279859 
L 678.589681 454.895442 
L 687.72973 531.418923 
L 696.869779 607.942404 
L 706.009828 486.525598 
L 715.149877 563.049078 
L 724.289926 441.675677 
L 733.429975 518.199157 
L 742.570025 594.722638 
L 751.710074 473.32049 
L 760.850123 549.843971 
L 769.990172 428.480324 
L 779.130221 505.003804 
L 788.27027 383.665787 
L 797.410319 460.189267 
L 806.550369 338.86832 
L 815.690418 415.391801 
L 824.830467 294.082226 
L 833.970516 370.605706 
L 843.110565 249.30371 
L 852.250614 325.82719 
L 861.390663 402.350671 
L 870.530713 478.874152 
L 879.670762 357.546917 
L 888.810811 434.070397 
L 897.95086 312.756633 
L 907.090909 389.280114 
L 916.230958 267.975326 
L 925.371007 344.498806 
L 934.511057 223.2 
L 943.651106 299.723481 
L 952.791155 376.246961 
L 961.931204 452.770442 
L 971.071253 529.293922 
L 980.211302 407.943315 
L 989.351351 484.466796 
L 998.4914 560.990276 
L 1007.63145 439.618473 
L 1016.771499 516.141954 
L 1025.911548 592.665435 
L 1035.051597 471.265415 
L 1044.191646 547.788895 
L 1053.331695 624.312376 
L 1062.471744 700.835856 
L 1071.611794 777.359337 
L 1080.751843 655.470853 
L 1089.891892 731.994334 
L 1099.031941 808.517814 
L 1108.17199 885.041295 
L 1117.312039 762.16593 
L 1126.452088 838.689411 
L 1135.592138 716.35611 
L 1144.732187 792.879591 
L 1153.872236 670.900578 
L 1163.012285 747.424059 
L 1172.152334 823.947539 
L 1181.292383 900.47102 
L 1190.432432 976.9945 
L 1199.572482 1053.517981 
L 1208.712531 925.106078 
L 1217.85258 1001.629558 
L 1226.992629 1078.153039 
L 1236.132678 1154.676519 
L 1245.272727 1231.2 
" style="fill:none;stroke:#a5db36;stroke-linecap:square;stroke-width:1.5;"/>
   </g>
   <g id="line2d_68">
    <path clip-path="url(#p8872349bef)" d="M 230.727273 863.324469 
L 239.867322 939.84795 
L 249.007371 1016.37143 
L 258.14742 889.948771 
L 267.287469 966.472252 
L 276.427518 841.889636 
L 285.567568 918.413117 
L 294.707617 794.982512 
L 303.847666 871.505993 
L 312.987715 948.029473 
L 322.127764 823.947539 
L 331.267813 900.47102 
L 340.407862 976.9945 
L 349.547912 1053.517981 
L 358.687961 925.106078 
L 367.82801 1001.629558 
L 376.968059 1078.153039 
L 386.108108 1154.676519 
L 395.248157 1231.2 
" style="fill:none;stroke:#bddf26;stroke-linecap:square;stroke-width:1.5;"/>
   </g>
   <g id="line2d_69">
    <path clip-path="url(#p8872349bef)" d="M 230.727273 859.450386 
L 239.867322 736.90181 
L 249.007371 813.425291 
L 258.14742 889.948771 
L 267.287469 966.472252 
L 276.427518 841.889636 
L 285.567568 918.413117 
L 294.707617 794.982512 
L 303.847666 871.505993 
L 312.987715 948.029473 
L 322.127764 823.947539 
L 331.267813 900.47102 
L 340.407862 976.9945 
L 349.547912 1053.517981 
L 358.687961 925.106078 
L 367.82801 1001.629558 
L 376.968059 1078.153039 
L 386.108108 1154.676519 
L 395.248157 1231.2 
" style="fill:none;stroke:#d2e21b;stroke-linecap:square;stroke-width:1.5;"/>
   </g>
   <g id="line2d_70">
    <path clip-path="url(#p8872349bef)" d="M 230.727273 855.707653 
L 239.867322 932.231134 
L 249.007371 808.517814 
L 258.14742 885.041295 
L 267.287469 762.16593 
L 276.427518 838.689411 
L 285.567568 716.35611 
L 294.707617 792.879591 
L 303.847666 670.900578 
L 312.987715 747.424059 
L 322.127764 823.947539 
L 331.267813 900.47102 
L 340.407862 976.9945 
L 349.547912 1053.517981 
L 358.687961 925.106078 
L 367.82801 1001.629558 
L 376.968059 1078.153039 
L 386.108108 1154.676519 
L 395.248157 1231.2 
" style="fill:none;stroke:#eae51a;stroke-linecap:square;stroke-width:1.5;"/>
   </g>
   <g id="patch_3">
    <path d="M 180 1281.6 
L 180 172.8 
" style="fill:none;stroke:#000000;stroke-linecap:square;stroke-linejoin:miter;stroke-width:0.8;"/>
   </g>
   <g id="patch_4">
    <path d="M 1296 1281.6 
L 1296 172.8 
" style="fill:none;stroke:#000000;stroke-linecap:square;stroke-linejoin:miter;stroke-width:0.8;"/>
   </g>
   <g id="patch_5">
    <path d="M 180 1281.6 
L 1296 1281.6 
" style="fill:none;stroke:#000000;stroke-linecap:square;stroke-linejoin:miter;stroke-width:0.8;"/>
   </g>
   <g id="patch_6">
    <path d="M 180 172.8 
L 1296 172.8 
" style="fill:none;stroke:#000000;stroke-linecap:square;stroke-linejoin:miter;stroke-width:0.8;"/>
   </g>
  </g>
 </g>
 <defs>
  <clipPath id="p8872349bef">
   <rect height="1108.8" width="1116" x="180" y="172.8"/>
  </clipPath>
 </defs>
</svg>
